<?xml version="1.0" encoding="UTF-8" standalone="no"?>
<!-- Created with Inkscape (http://www.inkscape.org/) -->

<svg
   xmlns:dc="http://purl.org/dc/elements/1.1/"
   xmlns:cc="http://creativecommons.org/ns#"
   xmlns:rdf="http://www.w3.org/1999/02/22-rdf-syntax-ns#"
   xmlns:svg="http://www.w3.org/2000/svg"
   xmlns="http://www.w3.org/2000/svg"
   xmlns:sodipodi="http://sodipodi.sourceforge.net/DTD/sodipodi-0.dtd"
   xmlns:inkscape="http://www.inkscape.org/namespaces/inkscape"
   width="1024"
   height="1024"
   viewBox="0 0 1024 1024"
   id="svg2"
   version="1.1"
   inkscape:version="0.91 r13725"
   sodipodi:docname="icon-white.svg">
  <defs
     id="defs4">
    <clipPath
       clipPathUnits="userSpaceOnUse"
       id="clipPath4165">
      <circle
         r="150"
         cy="902.36212"
         cx="150"
         id="circle4167"
         style="opacity:1;fill:#5eb1e4;fill-opacity:1;stroke:none;stroke-width:4.16435099;stroke-linecap:square;stroke-linejoin:miter;stroke-miterlimit:4;stroke-dasharray:none;stroke-opacity:1" />
    </clipPath>
    <clipPath
       clipPathUnits="userSpaceOnUse"
       id="clipPath5071">
      <circle
         style="opacity:1;fill:#5eb1e4;fill-opacity:1;stroke:none;stroke-width:4.16435099;stroke-linecap:square;stroke-linejoin:miter;stroke-miterlimit:4;stroke-dasharray:none;stroke-opacity:1"
         id="circle5073"
         cx="100.99816"
         cy="1042.3018"
         r="150" />
    </clipPath>
    <clipPath
       clipPathUnits="userSpaceOnUse"
       id="clipPath5192">
      <g
         id="g5194"
         transform="matrix(0,1.1428571,-1.1428571,0,77.344231,-73.14286)">
        <circle
           transform="scale(1,-1)"
           r="281.81589"
           cy="-557.20508"
           cx="511.99655"
           id="circle5196"
           style="opacity:1;fill:#5eb1e4;fill-opacity:1;stroke:none;stroke-width:4.16435099;stroke-linecap:square;stroke-linejoin:miter;stroke-miterlimit:4;stroke-dasharray:none;stroke-opacity:1" />
        <ellipse
           transform="matrix(1.8787726,0,0,1.8787726,322.24398,-1399.0429)"
           ry="186"
           rx="200"
           clip-path="url(#clipPath5071)"
           cy="1193.6992"
           cx="100.99816"
           id="ellipse5198"
           style="opacity:1;fill:#ebebeb;fill-opacity:1;stroke:none;stroke-width:4;stroke-linecap:square;stroke-linejoin:miter;stroke-miterlimit:4;stroke-dasharray:none;stroke-opacity:1" />
        <circle
           r="30.060362"
           cy="444.47885"
           cx="384.24002"
           id="circle5200"
           style="opacity:1;fill:#000000;fill-opacity:1;stroke:none;stroke-width:4;stroke-linecap:square;stroke-linejoin:miter;stroke-miterlimit:4;stroke-dasharray:none;stroke-opacity:1" />
        <path
           sodipodi:nodetypes="cccc"
           inkscape:connector-curvature="0"
           id="path5202"
           d="m 463.14847,474.53909 97.69617,0 -48.84808,51.43524 z"
           style="fill:#ffb10b;fill-opacity:1;fill-rule:evenodd;stroke:none;stroke-width:1px;stroke-linecap:butt;stroke-linejoin:miter;stroke-opacity:1" />
        <path
           sodipodi:nodetypes="cc"
           inkscape:connector-curvature="0"
           id="path5204"
           d="m 455.63338,283.20251 c 40.27521,-37.5397 58.68665,-34.22739 15.05806,1.58063"
           style="fill:#5eb1e4;fill-opacity:1;fill-rule:evenodd;stroke:none;stroke-width:1px;stroke-linecap:butt;stroke-linejoin:miter;stroke-opacity:1" />
        <path
           style="fill:#5eb1e4;fill-opacity:1;fill-rule:evenodd;stroke:none;stroke-width:1px;stroke-linecap:butt;stroke-linejoin:miter;stroke-opacity:1"
           d="m 481.93619,282.90436 c 49.64567,-56.21049 60.30163,-49.81789 16.90896,1.87878"
           id="path5206"
           inkscape:connector-curvature="0"
           sodipodi:nodetypes="cc" />
        <path
           sodipodi:nodetypes="csc"
           inkscape:connector-curvature="0"
           id="path5208"
           d="m 496.96637,282.90436 c 22.2882,-14.33193 43.87709,-25.70756 50.11138,-34.38768 15.04264,-20.94412 18.25397,11.55165 -33.20242,36.26646"
           style="fill:#5eb1e4;fill-opacity:1;fill-rule:evenodd;stroke:none;stroke-width:1px;stroke-linecap:butt;stroke-linejoin:miter;stroke-opacity:1" />
        <path
           sodipodi:nodetypes="cccscccsccccccc"
           id="path5210"
           overflow="visible"
           d="m 793.35542,448.73885 c 23.29082,-3.24819 43.48815,-15.42131 56.79321,-33.26549 1.31367,-1.82865 4.06239,-1.7407 5.25648,0.16815 3.1743,4.95073 5.12026,10.72674 5.39236,16.99926 0.32976,7.60154 -2.0894,14.68007 -6.04078,20.5655 0.79758,-0.39161 1.67553,-0.63352 2.42852,-1.09574 2.04845,-1.20326 4.64318,0.19382 4.76626,2.56637 l 0.0169,0.3954 c 0.50537,11.64941 -5.08507,22.02874 -13.71354,28.62363 0.096,-0.0225 0.20045,0.0188 0.2964,-0.0188 2.30972,-0.50144 4.33478,1.61255 3.73462,3.89864 -3.05541,11.13662 -11.70828,19.92288 -22.75182,23.46926 5.60308,17.52256 -14.41472,26.44278 -37.94206,22.5355 -18.771,-46.72188 -24.9557,-56.51023 -26.87208,-82.12914 z"
           style="color:#000000;line-height:normal;font-family:'Bitstream Vera Sans';-inkscape-font-specification:'Bitstream Vera Sans';text-indent:0;text-align:start;text-transform:none;block-progression:tb;overflow:visible;fill:#5eb1e4;fill-opacity:1;stroke:none;enable-background:accumulate"
           inkscape:connector-curvature="0" />
        <path
           inkscape:connector-curvature="0"
           style="color:#000000;line-height:normal;font-family:'Bitstream Vera Sans';-inkscape-font-specification:'Bitstream Vera Sans';text-indent:0;text-align:start;text-transform:none;block-progression:tb;overflow:visible;fill:#5eb1e4;fill-opacity:1;stroke:none;enable-background:accumulate"
           d="m 230.64462,448.73885 c -23.29083,-3.24819 -43.48816,-15.42131 -56.79321,-33.26549 -1.31368,-1.82865 -4.0624,-1.7407 -5.25649,0.16815 -3.1743,4.95073 -5.12026,10.72674 -5.39236,16.99926 -0.32976,7.60154 2.0894,14.68007 6.04078,20.5655 -0.79758,-0.39161 -1.67553,-0.63352 -2.42852,-1.09574 -2.04845,-1.20326 -4.64318,0.19382 -4.76626,2.56637 l -0.0169,0.3954 c -0.50537,11.64941 5.08507,22.02874 13.71354,28.62363 -0.096,-0.0225 -0.20045,0.0188 -0.2964,-0.0188 -2.30972,-0.50144 -4.33478,1.61255 -3.73462,3.89864 3.05541,11.13662 11.70829,19.92288 22.75182,23.46926 -5.60308,17.52256 14.41472,26.44278 37.94206,22.5355 18.77101,-46.72188 24.9557,-56.51023 26.87208,-82.12914 z"
           overflow="visible"
           id="path5212"
           sodipodi:nodetypes="cccscccsccccccc" />
        <circle
           r="30.060362"
           inkscape:transform-center-y="27.555556"
           inkscape:transform-center-x="60.444445"
           cy="444.47885"
           cx="639.75305"
           id="circle5214"
           style="opacity:1;fill:#000000;fill-opacity:1;stroke:none;stroke-width:4;stroke-linecap:square;stroke-linejoin:miter;stroke-miterlimit:4;stroke-dasharray:none;stroke-opacity:1" />
      </g>
    </clipPath>
    <clipPath
       clipPathUnits="userSpaceOnUse"
       id="clipPath4186">
      <circle
         r="150"
         cy="1042.3018"
         cx="100.99816"
         id="circle4188"
         style="opacity:1;fill:#5eb1e4;fill-opacity:1;stroke:none;stroke-width:4.16435099;stroke-linecap:square;stroke-linejoin:miter;stroke-miterlimit:4;stroke-dasharray:none;stroke-opacity:1" />
    </clipPath>
  </defs>
  <sodipodi:namedview
     id="base"
     pagecolor="#ffffff"
     bordercolor="#666666"
     borderopacity="1.0"
     inkscape:pageopacity="0.0"
     inkscape:pageshadow="2"
     inkscape:zoom="0.65332031"
     inkscape:cx="511.99995"
     inkscape:cy="512.00001"
     inkscape:document-units="px"
     inkscape:current-layer="layer1"
     showgrid="false"
     units="px"
     inkscape:window-width="1440"
     inkscape:window-height="851"
     inkscape:window-x="0"
     inkscape:window-y="1"
     inkscape:window-maximized="1" />
  <metadata
     id="metadata7">
    <rdf:RDF>
      <cc:Work
         rdf:about="">
        <dc:format>image/svg+xml</dc:format>
        <dc:type
           rdf:resource="http://purl.org/dc/dcmitype/StillImage" />
        <dc:title />
      </cc:Work>
    </rdf:RDF>
  </metadata>
  <g
     inkscape:label="Layer 1"
     inkscape:groupmode="layer"
     id="layer1"
     transform="translate(0,-28.36216)">
    <g
       id="g4174"
       transform="matrix(0.25,0,0,0.25,383.99996,405.27162)"
       inkscape:export-xdpi="90"
       inkscape:export-ydpi="90">
      <rect
         y="28.362154"
         x="-4.8507813e-05"
         height="1024"
         width="1024"
         id="rect5256"
         style="opacity:1;fill:#5eb1e4;fill-opacity:1;stroke:none;stroke-width:4;stroke-linecap:square;stroke-linejoin:miter;stroke-miterlimit:4;stroke-dasharray:none;stroke-opacity:1" />
      <path
         id="path4147-7"
         d="m 511.99995,237.37892 a 322.07529,322.07529 0 0 0 -322.08333,322.08333 322.07529,322.07529 0 0 0 5.55,58.18334 429.43372,399.37336 0 0 1 316.53333,-130.19998 429.43372,399.37336 0 0 1 316.6167,130.19998 322.07529,322.07529 0 0 0 5.44999,-58.18334 322.07529,322.07529 0 0 0 -322.06669,-322.08333 z"
         style="opacity:1;fill:#ffffff;fill-opacity:1;stroke:none;stroke-width:4.16435099;stroke-linecap:square;stroke-linejoin:miter;stroke-miterlimit:4;stroke-dasharray:none;stroke-opacity:1"
         inkscape:connector-curvature="0" />
      <ellipse
         transform="matrix(2.1471686,0,0,2.1471686,295.13595,-1676.2502)"
         ry="186"
         rx="200"
         clip-path="url(#clipPath4186)"
         cy="1193.6992"
         cx="100.99816"
         id="path4161-6"
         style="opacity:1;fill:#e6e6e6;fill-opacity:1;stroke:#ffffff;stroke-width:2.09578323;stroke-linecap:square;stroke-linejoin:miter;stroke-miterlimit:4;stroke-dasharray:none;stroke-opacity:1" />
      <circle
         r="34.354698"
         cy="430.63168"
         cx="365.98849"
         id="path4169-3"
         style="opacity:1;fill:#505050;fill-opacity:1;stroke:none;stroke-width:4;stroke-linecap:square;stroke-linejoin:miter;stroke-miterlimit:4;stroke-dasharray:none;stroke-opacity:1" />
      <path
         sodipodi:nodetypes="cccc"
         inkscape:connector-curvature="0"
         id="path4219-1"
         d="m 456.16959,466.98622 111.65278,0 -55.82635,58.78307 z"
         style="fill:#ffc60d;fill-opacity:1;fill-rule:evenodd;stroke:#ffffff;stroke-width:4.5;stroke-linecap:butt;stroke-linejoin:miter;stroke-miterlimit:4;stroke-dasharray:none;stroke-opacity:1" />
      <path
         sodipodi:nodetypes="cc"
         inkscape:connector-curvature="0"
         id="path4221-3"
         d="m 447.58096,246.31585 c 46.0288,-42.90253 67.07047,-39.11706 17.20918,1.80642"
         style="fill:#ffffff;fill-opacity:1;fill-rule:evenodd;stroke:none;stroke-width:1px;stroke-linecap:butt;stroke-linejoin:miter;stroke-opacity:1" />
      <path
         style="fill:#ffffff;fill-opacity:1;fill-rule:evenodd;stroke:none;stroke-width:1px;stroke-linecap:butt;stroke-linejoin:miter;stroke-opacity:1"
         d="m 477.64125,245.97511 c 56.73796,-64.24055 68.91614,-56.93474 19.32459,2.14716"
         id="path4223-0"
         inkscape:connector-curvature="0"
         sodipodi:nodetypes="cc" />
      <path
         sodipodi:nodetypes="csc"
         inkscape:connector-curvature="0"
         id="path4225-0"
         d="m 494.8186,245.97511 c 25.47225,-16.37939 50.14527,-29.3801 57.27018,-39.30027 17.1916,-23.93608 20.8617,13.20192 -37.9456,41.44743"
         style="fill:#ffffff;fill-opacity:1;fill-rule:evenodd;stroke:none;stroke-width:1px;stroke-linecap:butt;stroke-linejoin:miter;stroke-opacity:1" />
      <path
         sodipodi:nodetypes="cccscccsccccccc"
         id="path4384-3"
         overflow="visible"
         d="m 833.54892,435.50019 c 26.61811,-3.71217 49.70078,-17.62432 64.90658,-38.01771 1.50135,-2.0899 4.64273,-1.98938 6.00738,0.192 3.62778,5.65803 5.85173,12.25916 6.16269,19.42776 0.37717,8.68744 -2.38788,16.77721 -6.90372,23.50344 0.91153,-0.448 1.91488,-0.72363 2.77546,-1.25227 2.34104,-1.37523 5.30646,0.22102 5.44717,2.933 l 0.0171,0.45226 c 0.5777,13.31362 -5.81154,25.17572 -15.67266,32.71271 0.11008,-0.0256 0.22869,0.0256 0.33877,-0.0256 2.6397,-0.57344 4.95403,1.84294 4.26812,4.45559 -3.49184,12.72755 -13.38087,22.76907 -26.00209,26.82206 6.40358,20.02577 -16.47394,30.22029 -43.36231,25.75488 -21.45263,-53.39648 -28.52079,-64.58317 -30.71095,-93.86189 z"
         style="color:#000000;line-height:normal;font-family:'Bitstream Vera Sans';-inkscape-font-specification:'Bitstream Vera Sans';text-indent:0;text-align:start;text-transform:none;block-progression:tb;overflow:visible;fill:#ffffff;fill-opacity:1;stroke:none;enable-background:accumulate"
         inkscape:connector-curvature="0" />
      <path
         inkscape:connector-curvature="0"
         style="color:#000000;line-height:normal;font-family:'Bitstream Vera Sans';-inkscape-font-specification:'Bitstream Vera Sans';text-indent:0;text-align:start;text-transform:none;block-progression:tb;overflow:visible;fill:#ffffff;fill-opacity:1;stroke:none;enable-background:accumulate"
         d="m 190.45089,435.50019 c -26.61802,-3.71217 -49.70069,-17.62432 -64.90649,-38.01771 -1.50136,-2.0899 -4.64273,-1.98938 -6.00738,0.192 -3.62778,5.65803 -5.85174,12.25916 -6.16269,19.42776 -0.37717,8.68744 2.38788,16.77721 6.90372,23.50344 -0.91153,-0.448 -1.91488,-0.72363 -2.77546,-1.25227 -2.34104,-1.37523 -5.30646,0.22102 -5.44717,2.933 l -0.0171,0.45226 c -0.57771,13.31362 5.81154,25.17572 15.67266,32.71271 -0.11008,-0.0256 -0.22954,0.0256 -0.33877,-0.0256 -2.6397,-0.57344 -4.95403,1.84294 -4.26812,4.45559 3.49184,12.72755 13.38087,22.76907 26.00209,26.82206 -6.40358,20.02577 16.47394,30.22029 43.36231,25.75488 21.45263,-53.39648 28.52079,-64.58317 30.71095,-93.86189 z"
         overflow="visible"
         id="path4956-6"
         sodipodi:nodetypes="cccscccsccccccc" />
      <circle
         r="34.354698"
         inkscape:transform-center-y="27.555556"
         inkscape:transform-center-x="60.444445"
         cy="430.63168"
         cx="658.0036"
         id="path4169-2-0"
         style="opacity:1;fill:#505050;fill-opacity:1;stroke:none;stroke-width:4;stroke-linecap:square;stroke-linejoin:miter;stroke-miterlimit:4;stroke-dasharray:none;stroke-opacity:1" />
    </g>
  </g>
</svg>
